<?xml version="1.0" encoding="iso-8859-1"?>
<!-- Generator: Adobe Illustrator 19.0.0, SVG Export Plug-In . SVG Version: 6.00 Build 0)  -->
<svg version="1.1" id="Capa_1" xmlns="http://www.w3.org/2000/svg" xmlns:xlink="http://www.w3.org/1999/xlink" x="0px" y="0px"
	 viewBox="0 0 512 512" style="enable-background:new 0 0 512 512;" xml:space="preserve">
<rect x="71.27" y="75.64" style="fill:#FF6D3A;" width="369.45" height="431.3"/>
<rect x="394.56" y="75.64" style="fill:#ED5729;" width="46.17" height="431.3"/>
<g>
	<path style="fill:#FFB125;" d="M299.568,511.705h-87.136V348.823c0-3.214,2.605-5.819,5.819-5.819h75.498
		c3.214,0,5.819,2.605,5.819,5.819V511.705z"/>
	<path style="fill:#FFB125;" d="M450.426,302.627H61.574c-6.082,0-11.012-4.93-11.012-11.012l0,0c0-6.082,4.93-11.012,11.012-11.012
		h388.853c6.082,0,11.012,4.93,11.012,11.012l0,0C461.439,297.697,456.508,302.627,450.426,302.627z"/>
</g>
<g>
	<path style="fill:#B6FA4D;" d="M137.727,490.831c-0.271-15.294-11.946-27.803-26.888-29.376C103.907,450.375,91.601,443,77.566,443
		c-21.666,0-39.23,17.564-39.23,39.23c0,2.956,0.338,5.832,0.957,8.601L137.727,490.831L137.727,490.831z"/>
	<path style="fill:#B6FA4D;" d="M347.559,490.831c0.639-13.114,11.472-23.55,24.744-23.55c1.801,0,3.552,0.203,5.243,0.568
		c5.199-13.518,18.3-23.116,33.65-23.116c10.772,0,20.434,4.731,27.04,12.221c1.708-0.3,3.462-0.466,5.256-0.466
		c16.663,0,30.172,13.508,30.172,30.172c0,1.416-0.105,2.807-0.294,4.172H347.559V490.831z"/>
</g>
<path style="fill:#FF901D;" d="M280.65,409.457c-4.143,0-7.5,3.358-7.5,7.5v13c0,4.142,3.357,7.5,7.5,7.5s7.5-3.358,7.5-7.5v-13
	C288.15,412.815,284.793,409.457,280.65,409.457z"/>
<g>
	<path style="fill:#FFFFFF;" d="M172.629,425.957h-61.247v-69.304c0-1.597,1.294-2.891,2.891-2.891h55.465
		c1.597,0,2.891,1.294,2.891,2.891V425.957z"/>
	<path style="fill:#FFFFFF;" d="M400.619,425.957h-61.247v-69.304c0-1.597,1.294-2.891,2.891-2.891h55.465
		c1.597,0,2.891,1.294,2.891,2.891L400.619,425.957L400.619,425.957z"/>
	<path style="fill:#FFFFFF;" d="M173.237,238.357h-67.463v-75.172c0-1.759,1.426-3.184,3.184-3.184h61.095
		c1.759,0,3.184,1.426,3.184,3.184L173.237,238.357L173.237,238.357z"/>
	<path style="fill:#FFFFFF;" d="M289.732,238.357h-67.463v-75.172c0-1.759,1.426-3.184,3.184-3.184h61.095
		c1.759,0,3.184,1.426,3.184,3.184V238.357z"/>
	<path style="fill:#FFFFFF;" d="M406.227,238.357h-67.463v-75.172c0-1.759,1.426-3.184,3.184-3.184h61.095
		c1.759,0,3.184,1.426,3.184,3.184L406.227,238.357L406.227,238.357z"/>
</g>
<path style="fill:#45748C;" d="M437.999,15.57H74.001c-3.03,0-5.677,2.048-6.439,4.98L47.737,96.898h416.526l-19.826-76.347
	C443.676,17.618,441.029,15.57,437.999,15.57z"/>
<path style="fill:#3C6A7C;" d="M444.438,20.55c-0.762-2.933-3.409-4.98-6.439-4.98h-46.62c3.03,0,5.677,2.048,6.439,4.98
	l10.293,39.639c3.182,12.252-6.066,24.208-18.725,24.208H50.983l-3.246,12.5h369.906h46.62L444.438,20.55z"/>
<path style="fill:#2D5872;" d="M347.893,118.173L276.209,10.807C271.691,4.04,264.137,0,256,0s-15.691,4.04-20.209,10.806
	l-71.685,107.367H347.893z"/>
<path style="fill:#E6E6E6;" d="M251.382,22.487l-59.294,88.808h127.824l-59.294-88.808C258.42,19.194,253.58,19.194,251.382,22.487z
	"/>
<path style="fill:#2D5872;" d="M458.329,118.173H53.671c-3.277,0-5.934-2.657-5.934-5.934V96.898h416.526v15.341
	C464.263,115.516,461.606,118.173,458.329,118.173z"/>
<path style="fill:#77DD00;" d="M483.934,484.834H28.066c-7.502,0-13.583,6.081-13.583,13.583l0,0
	c0,7.502,6.081,13.583,13.583,13.583h455.868c7.502,0,13.583-6.081,13.583-13.583l0,0
	C497.517,490.915,491.436,484.834,483.934,484.834z"/>
<path style="fill:#6EC102;" d="M497.372,500.299L497.372,500.299c0.086-0.617,0.145-1.242,0.145-1.882
	c0-0.692-0.071-1.364-0.172-2.027v-0.034c-0.015-0.098-0.041-0.192-0.058-0.289c-0.075-0.423-0.167-0.839-0.28-1.247
	c-0.082-0.298-0.165-0.595-0.266-0.884c-0.056-0.159-0.124-0.313-0.186-0.469c-0.114-0.291-0.234-0.578-0.368-0.859
	c-0.03-0.062-0.051-0.129-0.081-0.19c-0.002,0.005-0.005,0.009-0.007,0.013c-2.211-4.495-6.816-7.596-12.165-7.596h-32.658
	l0.016,2.239c0.049,7.125-5.713,12.927-12.837,12.927H28.066c-5.345,0-9.955-3.095-12.172-7.583
	c-1.118,2.263-1.645,4.869-1.313,7.634C15.408,506.941,21.489,512,28.428,512h423.036h32.47c0.45,0,0.894-0.024,1.333-0.067
	c0.15-0.015,0.296-0.043,0.445-0.062c0.284-0.037,0.568-0.075,0.847-0.129c0.179-0.035,0.354-0.083,0.531-0.125
	c0.24-0.057,0.48-0.114,0.715-0.184c0.191-0.057,0.376-0.123,0.563-0.188c0.211-0.073,0.422-0.147,0.629-0.23
	c0.197-0.079,0.389-0.166,0.582-0.254c0.185-0.085,0.368-0.171,0.548-0.264c0.202-0.104,0.4-0.213,0.597-0.327
	c0.156-0.091,0.31-0.184,0.462-0.281c0.208-0.132,0.412-0.267,0.613-0.41c0.125-0.089,0.246-0.181,0.367-0.274
	c0.215-0.165,0.427-0.332,0.632-0.509c0.087-0.075,0.171-0.155,0.256-0.233c0.227-0.206,0.45-0.415,0.662-0.636
	c0.037-0.039,0.071-0.08,0.108-0.119c1.877-1.998,3.152-4.559,3.548-7.408C497.372,500.3,497.372,500.299,497.372,500.299z"/>
<path style="fill:#FF901D;" d="M461.375,290.445c-0.006-0.056-0.018-0.11-0.025-0.166c-0.04-0.334-0.092-0.664-0.162-0.988
	c-0.006-0.025-0.014-0.05-0.019-0.075c-0.163-0.731-0.398-1.432-0.698-2.1l0,0l0,0c-1.722-3.836-5.567-6.512-10.044-6.512h-34.975
	v0.487c0,6.924-5.613,12.538-12.538,12.538H61.573c-4.477,0-8.322-2.676-10.044-6.512c-0.617,1.375-0.968,2.895-0.968,4.5l0,0
	c0,6.082,4.93,11.012,11.012,11.012h388.853c6.082,0,11.012-4.93,11.012-11.012l0,0
	C461.439,291.219,461.416,290.829,461.375,290.445z"/>
<g>
	<path style="fill:#E6E6E6;" d="M170.052,160h-30.547v78.357h33.732v-75.172C173.237,161.426,171.811,160,170.052,160z"/>
	<path style="fill:#E6E6E6;" d="M286.831,160h-30.547v78.357h33.732v-75.172C290.016,161.426,288.59,160,286.831,160z"/>
	<path style="fill:#E6E6E6;" d="M403.042,160h-30.547v78.357h33.732v-75.172C406.227,161.426,404.801,160,403.042,160z"/>
</g>
<g>
	<path style="fill:#FF901D;" d="M178.172,228.776h-77.334c-4.143,0-7.5,3.358-7.5,7.5s3.357,7.5,7.5,7.5h77.334
		c4.143,0,7.5-3.358,7.5-7.5S182.314,228.776,178.172,228.776z"/>
	<path style="fill:#FF901D;" d="M294.667,228.776h-77.334c-4.143,0-7.5,3.358-7.5,7.5s3.357,7.5,7.5,7.5h77.334
		c4.143,0,7.5-3.358,7.5-7.5S298.81,228.776,294.667,228.776z"/>
	<path style="fill:#FF901D;" d="M411.162,228.776h-77.334c-4.143,0-7.5,3.358-7.5,7.5s3.357,7.5,7.5,7.5h77.334
		c4.143,0,7.5-3.358,7.5-7.5S415.305,228.776,411.162,228.776z"/>
</g>
<g>
	<path style="fill:#E6E6E6;" d="M397.728,353.762h-27.733v72.195h30.624v-69.304C400.619,355.057,399.324,353.762,397.728,353.762z"
		/>
	<path style="fill:#E6E6E6;" d="M169.738,353.762h-27.733v72.195h30.624v-69.304C172.629,355.057,171.334,353.762,169.738,353.762z"
		/>
</g>
<g>
	<path style="fill:#FF901D;" d="M175.672,415.957h-67.334c-4.143,0-7.5,3.358-7.5,7.5s3.357,7.5,7.5,7.5h67.334
		c4.143,0,7.5-3.358,7.5-7.5S179.815,415.957,175.672,415.957z"/>
	<path style="fill:#FF901D;" d="M403.662,415.957h-67.334c-4.143,0-7.5,3.358-7.5,7.5s3.357,7.5,7.5,7.5h67.334
		c4.143,0,7.5-3.358,7.5-7.5S407.805,415.957,403.662,415.957z"/>
</g>
<g>
</g>
<g>
</g>
<g>
</g>
<g>
</g>
<g>
</g>
<g>
</g>
<g>
</g>
<g>
</g>
<g>
</g>
<g>
</g>
<g>
</g>
<g>
</g>
<g>
</g>
<g>
</g>
<g>
</g>
</svg>
